<?xml version="1.0" encoding="UTF-8" standalone="no"?>
<!-- Created with Inkscape (http://www.inkscape.org/) -->

<svg
   width="40"
   height="30"
   viewBox="0 0 10.583333 7.9375"
   version="1.1"
   id="svg1"><g
     id="layer1"><path
       fill="none"
       d="M -326.66911,-325.89047 H 334.78923 V 335.56787 H -326.66911 Z"
       id="path3"
       style="strokeWidth:4.66697" /><path
       d="m 9.2830494,5.1415274 c 0,0.1987924 -0.1258857,0.2914413 -0.3511896,0.2914413 H 8.5012779 V 5.2341763 h 0.4305819 c 0.039767,0 0.072909,-0.00657 0.086212,-0.019781 0.013207,-0.01331 0.026464,-0.033188 0.026464,-0.059652 0,-0.02656 -0.013208,-0.053024 -0.026464,-0.066232 -0.01331,-0.01331 -0.039767,-0.019883 -0.079537,-0.019883 -0.2053249,-0.00668 -0.4637701,0.00657 -0.4637701,-0.2849092 0,-0.1325609 0.086116,-0.2783294 0.3180014,-0.2783294 h 0.443887 V 4.7041831 H 8.8258592 c -0.039672,0 -0.066232,0 -0.086116,0.013208 -0.019883,0.019883 -0.033092,0.039767 -0.033092,0.072909 0,0.033141 0.019883,0.053024 0.046349,0.06633 0.02656,0.00657 0.053073,0.013208 0.086212,0.013208 h 0.1192084 c 0.1258837,0 0.2054209,0.026464 0.2584452,0.072909 0.039671,0.046349 0.066185,0.1060479 0.066185,0.1987924 z M 8.3488332,4.9427346 C 8.2958089,4.8962903 8.2162725,4.8698261 8.090388,4.8698261 H 7.9711795 c -0.033092,0 -0.059652,-0.00668 -0.086116,-0.013208 -0.02656,-0.01331 -0.046349,-0.033188 -0.046349,-0.06633 0,-0.033139 0.00657,-0.053024 0.033092,-0.072909 0.019883,-0.013208 0.046349,-0.013208 0.086116,-0.013208 H 8.3687172 V 4.5053805 h -0.443886 c -0.2385611,0 -0.3180974,0.1457685 -0.3180974,0.2783294 0,0.2914411 0.2584452,0.2782332 0.463866,0.2849092 0.039671,0 0.066231,0.00657 0.079441,0.019883 0.013208,0.013207 0.02656,0.039671 0.02656,0.066231 0,0.026464 -0.01331,0.046349 -0.02656,0.059652 -0.019883,0.013208 -0.046349,0.019781 -0.086116,0.019781 H 7.633246 v 0.1987924 h 0.4306778 c 0.225209,0 0.3511417,-0.092695 0.3511417,-0.2914413 0,-0.092745 -0.026464,-0.1524457 -0.066231,-0.1987924 z m -0.8481,0.2981653 H 6.9774069 V 5.055362 H 7.4875253 V 4.8699222 H 6.9774069 V 4.6975934 H 7.5007332 V 4.5054765 H 6.7587299 V 5.4330167 H 7.5007332 Z M 6.5201689,4.5518728 C 6.4472606,4.5121045 6.3611442,4.5054285 6.2485155,4.5054285 H 5.7383973 v 0.9275402 h 0.225209 V 5.0950831 h 0.2385611 c 0.079441,0 0.1258837,0.00668 0.1590249,0.039767 0.039767,0.046349 0.039767,0.1258837 0.039767,0.185538 v 0.1125802 h 0.218581 V 5.254059 c 0,-0.086116 -0.00657,-0.1258837 -0.033092,-0.1722324 -0.019882,-0.02656 -0.059556,-0.059652 -0.11258,-0.079537 C 6.5334246,4.982509 6.6328932,4.9029659 6.6328932,4.7571487 6.6328454,4.6511967 6.5930768,4.5915445 6.5201689,4.5518728 Z M 5.2613231,4.5054285 H 4.5523639 L 4.2674547,4.8102218 3.9958014,4.5054285 H 3.1013533 v 0.9275402 h 0.88124 L 4.2675027,5.1281753 4.5391558,5.4329687 H 4.9698339 V 5.1216432 H 5.248115 c 0.1921172,0 0.3843299,-0.053024 0.3843299,-0.3114214 C 5.632397,4.5584529 5.4336035,4.5054285 5.2613231,4.5054285 Z M 6.34126,4.8897582 c -0.033092,0.013208 -0.066232,0.013208 -0.106001,0.013208 l -0.2716531,0.00668 V 4.6975453 H 6.235259 c 0.039767,0 0.079537,0 0.106001,0.019883 0.02656,0.01331 0.046349,0.039767 0.046349,0.079537 0,0.039767 -0.019781,0.072909 -0.046349,0.092793 z M 5.2613231,4.9361065 H 4.9697859 V 4.6975453 h 0.2915372 c 0.079537,0 0.132512,0.033188 0.132512,0.1126761 0,0.079537 -0.053024,0.1258837 -0.132512,0.1258851 z M 4.4065953,4.9691988 4.7511088,4.6048492 V 5.3535283 Z M 3.8699169,5.2408999 H 3.3199824 V 5.055362 H 3.8102645 V 4.8699222 H 3.3199824 V 4.6975934 H 3.876545 L 4.1216859,4.9692466 Z M 8.6668345,3.8362376 H 8.3488332 L 7.9314113,3.1405342 V 3.8362376 H 7.4809452 L 7.3947329,3.6308165 H 6.9309628 L 6.8448464,3.8362376 H 6.5864012 c -0.106001,0 -0.2451412,-0.026513 -0.3245816,-0.106048 C 6.1889109,3.6507017 6.1491434,3.5447007 6.1491434,3.379048 c 0,-0.1391402 0.019883,-0.2650251 0.1192085,-0.3643976 0.066231,-0.072909 0.1855379,-0.106001 0.3378854,-0.106001 H 6.8182384 V 3.1074418 H 6.6062371 c -0.079441,0 -0.1258837,0.013248 -0.1722324,0.053024 -0.039767,0.039767 -0.059652,0.1126293 -0.059652,0.2120012 0,0.099373 0.019883,0.1722814 0.059652,0.2186769 0.033092,0.033092 0.092791,0.046349 0.1523477,0.046349 h 0.09942 L 7.0037749,2.9086974 H 7.3350805 L 7.7061061,3.7832612 V 2.9086492 H 8.0506677 L 8.4415775,3.5513281 V 2.9086492 h 0.225209 V 3.8362376 Z M 6.0365146,2.9086492 h -0.225209 v 0.9275884 h 0.225209 z M 5.5660685,2.9484175 C 5.4931602,2.9086492 5.4137198,2.9086492 5.3010914,2.9086492 H 4.790877 V 3.8362376 H 5.009506 V 3.498304 h 0.2385131 c 0.079537,0 0.1325609,0.00663 0.1656532,0.039767 0.039767,0.046396 0.033092,0.1259327 0.033092,0.1789097 v 0.1192575 h 0.225209 V 3.6507007 c 0,-0.079488 -0.00657,-0.1192575 -0.039671,-0.1656532 C 5.6124193,3.4585345 5.5726498,3.4253953 5.5263011,3.4055595 5.5858573,3.3790465 5.685326,3.3061868 5.685326,3.1604184 5.6853742,3.0544174 5.6389303,2.9947652 5.5660706,2.9484175 Z M 4.6318523,3.6441206 H 4.1150578 V 3.4585827 H 4.6252243 V 3.2664669 H 4.1150578 V 3.1008141 H 4.6318523 V 2.9086974 H 3.8898008 V 3.8362855 H 4.6318523 Z M 3.7241481,2.9086492 H 3.3597505 L 3.0880974,3.5380721 2.7965599,2.9086492 H 2.4387904 v 0.874564 L 2.0611367,2.9086492 H 1.7298791 L 1.3323413,3.8362376 h 0.2385131 l 0.086116,-0.2054211 h 0.4637701 l 0.086116,0.2054211 H 2.6574193 V 3.1074422 L 2.9820488,3.8362376 H 3.174166 L 3.4988431,3.1074422 v 0.7287954 h 0.225257 V 2.9086492 Z M 7.3152925,3.4320717 7.1628478,3.0676739 7.0104991,3.4320717 Z M 5.3938357,3.286351 C 5.3607437,3.306234 5.3276047,3.306234 5.2812065,3.306234 H 5.009506 V 3.1008621 h 0.2716533 c 0.039767,0 0.086067,0 0.1126292,0.013248 0.026464,0.019883 0.039767,0.046396 0.039767,0.086116 0,0.039721 -0.013248,0.072813 -0.03972,0.086116 z M 1.7364592,3.4320725 1.8888559,3.0676747 2.0412526,3.4320725 Z M 9.2300732,0 H 1.3256653 V 3.3393272 L 1.5973184,2.7231605 h 0.5763987 l 0.079537,0.1523966 V 2.7231605 H 2.9290733 L 3.0814699,3.054418 3.2272384,2.7231605 H 5.38058 c 0.099324,0 0.1854399,0.019883 0.2517692,0.07286 v -0.07286 H 6.222004 v 0.07286 c 0.099324,-0.053024 0.2252088,-0.07286 0.3710256,-0.07286 h 0.8546799 l 0.079537,0.1523966 V 2.7231605 h 0.6294229 l 0.092794,0.1523966 V 2.7231605 H 8.8655795 V 4.0217743 H 8.2428327 L 8.1236242,3.8230288 V 4.0217743 H 7.3483845 L 7.2622683,3.8097734 H 7.0700552 L 6.983939,4.0217743 H 6.5798211 c -0.1590249,0 -0.2783294,-0.039767 -0.3577696,-0.079488 v 0.079488 H 5.2613231 V 3.723609 c 0,-0.039767 -0.00663,-0.046396 -0.033139,-0.046396 H 5.1950911 V 4.021726 H 3.3398664 V 3.8560731 L 3.2736349,4.0217263 H 2.8827243 L 2.8164928,3.8627014 V 4.0217263 H 2.0677647 L 1.9882764,3.8097254 H 1.7961114 L 1.709995,4.0217263 H 1.3256653 V 7.9375 H 9.2300732 V 5.5588532 c -0.086116,0.039767 -0.205421,0.059652 -0.3246774,0.059652 H 8.3289491 v -0.079537 c -0.066231,0.053073 -0.1855359,0.079537 -0.2981173,0.079537 H 6.2153755 V 5.3203883 c 0,-0.039767 -0.00657,-0.039767 -0.039767,-0.039767 H 6.1425158 V 5.6185064 H 5.5461844 V 5.2673639 C 5.4468604,5.3137129 5.3341835,5.3137129 5.234811,5.3137129 H 5.168531 V 5.618506 H 4.4397353 L 4.2675029,5.4197116 4.0753857,5.618504 H 2.9025605 V 4.3199398 H 4.0951739 L 4.2674553,4.5186362 4.4529912,4.3199398 h 0.8017037 c 0.092697,0 0.2451411,0.013208 0.3113734,0.079441 v -0.079441 h 0.7155393 c 0.072909,0 0.2120969,0.013208 0.3047933,0.079441 v -0.079441 h 1.0799849 v 0.079488 c 0.059652,-0.053024 0.1723284,-0.079441 0.2716533,-0.079441 h 0.6029107 v 0.079441 C 8.6072792,4.353079 8.6999747,4.3199867 8.8192791,4.3199867 H 9.230073 Z"
       fill="#0077a6"
       id="path2"
       style="clip-rule:evenodd;fill-rule:evenodd;strokeWidth:0.0480292" /></g></svg>
