<?xml version="1.0" encoding="UTF-8" standalone="no"?>
<!-- Created with Inkscape (http://www.inkscape.org/) -->

<svg
   width="40"
   height="30"
   viewBox="0 0 10.583333 7.9375"
   version="1.1"
   id="svg1"
   ><g
     id="layer1"><path
       fill="none"
       d="M -326.66911,-325.89047 H 334.78923 V 335.56787 H -326.66911 Z"
       id="path3"
       style="strokeWidth:4.66697" /><g
       id="g2"
       transform="matrix(0.01872285,0,0,0.01872285,4.0904786,-0.25262492)"><path
         d="m -130.36503,166.81496 c 6.3643,-2.12143 13.15288,-3.25286 20.19604,-3.25286 30.83149,0 56.571541,21.89318 62.454982,50.99924 l 43.701516,-8.91002 c -10.013163,-49.44352 -53.742965,-86.6676 -106.156498,-86.6676 -12.02145,0 -23.53376,1.95172 -34.33893,5.5723 z"
         fill="#ffcb05"
         id="path2"
         style="strokeWidth:0.282858" /><path
         d="m -181.92999,308.41353 29.55863,-33.4055 c -13.18117,-11.68202 -21.49719,-28.73834 -21.49719,-47.74638 0,-18.97975 8.31602,-36.03607 21.49719,-47.68981 l -29.55863,-33.43378 c -22.40233,19.85661 -36.54522,48.84953 -36.54522,81.12359 0,32.30235 14.14289,61.29527 36.54522,81.15188"
         fill="#00a4e0"
         id="path3-2"
         style="strokeWidth:0.282858" /><path
         d="m -47.714008,240.04682 c -5.911726,29.07777 -31.623492,50.94267 -62.426692,50.94267 -7.07145,0 -13.88832,-1.13143 -20.22433,-3.28114 l -14.14289,42.31551 c 10.80517,3.59229 22.34576,5.54401 34.36722,5.54401 52.356957,0 96.058473,-37.1675 106.128208,-86.55446 z"
         fill="#ef4123"
         id="path4"
         style="strokeWidth:0.282858" /><path
         d="m 34.201585,276.39404 c -1.442575,-2.31944 -3.366007,-6.02487 -4.55401,-8.76859 -6.930013,-16.06632 -7.241157,-32.69835 -1.414288,-48.65153 6.42087,-17.50889 18.696895,-30.88806 34.565212,-37.73322 19.941469,-8.57059 41.976081,-6.90172 61.097261,4.44087 12.1346,6.9583 20.73347,17.70689 27.26749,32.92464 0.82029,1.95171 1.55572,4.01658 2.29115,5.79858 z M 74.02795,207.06561 c -14.171171,6.08144 -21.4689,19.37576 -19.941468,34.93293 L 114.05232,216.17363 C 103.72801,204.06732 90.320554,200.05074 74.02795,207.06561 Z m 47.49181,56.17554 c -0.0283,0 -0.0283,0.0283 -0.0283,0.0283 l -1.24457,-0.84857 c -3.59229,5.79858 -9.16459,10.5223 -16.20775,13.57717 -13.407452,5.82686 -25.824906,4.32772 -34.763209,-3.50744 l -0.820288,1.24457 c 0,0 0,-0.0283 -0.02829,-0.0283 l -15.217744,22.77004 c 3.790293,2.63058 7.835158,4.83687 12.078024,6.61887 16.801748,6.98659 33.999497,6.64716 50.942677,-0.70714 12.24774,-5.31772 21.8649,-13.40745 28.4272,-23.67519 z m 73.59958,-115.4908 v 126.55054 l 19.68689,7.97659 -11.17288,26.07948 -21.72347,-9.05145 c -4.86515,-2.12143 -8.20287,-5.34601 -10.69202,-8.99487 -2.40429,-3.70544 -4.18629,-8.82516 -4.18629,-15.67032 V 147.75035 Z m 50.97096,94.33305 c 0,-10.77688 4.78029,-20.45062 12.30431,-27.01291 l -20.19604,-22.51548 c -13.69032,12.10631 -22.31748,29.78492 -22.31748,49.47182 -0.0283,19.71518 8.59888,37.42207 22.2609,49.52838 l 20.16776,-22.51547 C 250.81402,262.44915 246.0903,252.83199 246.0903,242.0834 Z m 35.86635,35.89464 c -3.96001,0 -7.80687,-0.67886 -11.37088,-1.86686 l -9.64545,28.65349 c 6.59059,2.20629 13.63375,3.42257 20.98805,3.42257 31.96292,0.0283 58.6364,-22.6569 64.83098,-52.78125 l -29.64348,-6.05315 c -3.36601,16.37746 -17.82004,28.65349 -35.15922,28.6252 z m 0.0849,-101.99849 c -7.32601,0 -14.36917,1.188 -20.95976,3.36601 l 9.56059,28.68177 c 3.5923,-1.188 7.41088,-1.83858 11.37088,-1.83858 17.36747,0.0283 31.84978,12.36089 35.13093,28.76663 l 29.64349,-5.99658 c -6.08144,-30.18092 -32.75492,-52.95096 -64.74613,-52.97925 z"
         fill="#000000"
         id="path5"
         style="fill:#000000;strokeWidth:0.282858" /></g></g></svg>
