<?xml version="1.0" encoding="UTF-8" standalone="no"?>
<!-- Created with Inkscape (http://www.inkscape.org/) -->

<svg
   width="40"
   height="30"
   viewBox="0 0 10.583333 7.9375"
   version="1.1"
   id="svg1"><g
     id="layer1"><g
       id="g1"
       transform="matrix(0.0602188,0,0,0.0602188,-0.512101,-1.8505836)"><path
         fill="#1b3771"
         d="M 8.504,151.977 H 184.252 V 40.78 H 8.504 Z"
         id="path2"
         style="clip-rule:evenodd;fill-rule:evenodd" /><path
         d="m 96.52,131.904 c 8.48,7.729 19.883,12.439 32.229,12.439 26.574,0 48.059,-21.486 48.059,-48.061 0,-26.479 -21.484,-48.059 -48.059,-48.059 -12.346,0 -23.748,4.712 -32.229,12.439 -9.707,8.857 -15.832,21.485 -15.832,35.62 0,14.138 6.125,26.859 15.832,35.622 z"
         fill="#e9b040"
         id="path3"
         style="clip-rule:evenodd;fill-rule:evenodd" /><path
         d="m 170.4,123.047 c 0,-0.848 0.658,-1.508 1.602,-1.508 0.848,0 1.508,0.66 1.508,1.508 0,0.848 -0.66,1.602 -1.508,1.602 a 1.589,1.589 0 0 1 -1.602,-1.602 z m 1.602,1.224 c 0.564,0 1.131,-0.564 1.131,-1.225 0,-0.661 -0.566,-1.131 -1.131,-1.131 -0.66,0 -1.225,0.471 -1.225,1.131 0,0.66 0.565,1.225 1.225,1.225 z m -0.283,-0.47 h -0.283 v -1.414 h 0.566 c 0.094,0 0.283,0 0.377,0.094 0.094,0.096 0.188,0.189 0.188,0.283 0,0.189 -0.094,0.377 -0.281,0.377 l 0.281,0.66 h -0.377 l -0.188,-0.566 h -0.283 z m 0,-0.848 h 0.377 c 0.094,0 0.094,-0.096 0.094,-0.189 0,0 0,-0.094 -0.094,-0.094 h -0.377 z"
         fill="#e9b040"
         id="path4"
         style="clip-rule:evenodd;fill-rule:evenodd" /><path
         d="M 112.068,91.195 A 47.818,47.818 0 0 0 111.22,86.107 H 81.819 a 51.097,51.097 0 0 1 1.414,-5.089 h 26.574 a 56.747,56.747 0 0 0 -1.979,-5.089 H 85.211 A 68.395,68.395 0 0 1 88.038,70.84 H 105 a 31.658,31.658 0 0 0 -3.674,-5.088 h -9.613 c 1.414,-1.791 3.11,-3.487 4.806,-5.088 -8.481,-7.728 -19.79,-12.439 -32.229,-12.439 -26.574,0 -48.06,21.58 -48.06,48.059 0,26.574 21.486,48.061 48.06,48.061 12.439,0 23.747,-4.711 32.229,-12.439 1.695,-1.602 3.393,-3.297 4.9,-5.088 H 91.712 A 50.187,50.187 0 0 1 88.037,121.73 H 105 a 44.338,44.338 0 0 0 2.828,-5.09 H 85.211 a 40.765,40.765 0 0 1 -1.979,-5.088 h 26.574 a 51.661,51.661 0 0 0 1.414,-5.09 c 0.377,-1.695 0.658,-3.393 0.848,-5.088 a 45.936,45.936 0 0 0 0,-10.179 z"
         fill="#cc2131"
         id="path5"
         style="clip-rule:evenodd;fill-rule:evenodd" /><path
         d="m 170.4,107.404 c 0,-0.848 0.658,-1.508 1.602,-1.508 0.848,0 1.508,0.66 1.508,1.508 0,0.848 -0.66,1.602 -1.508,1.602 a 1.588,1.588 0 0 1 -1.602,-1.602 z m 1.602,1.225 c 0.564,0 1.131,-0.566 1.131,-1.225 0,-0.66 -0.566,-1.131 -1.131,-1.131 -0.66,0 -1.225,0.471 -1.225,1.131 0,0.658 0.565,1.225 1.225,1.225 z m -0.283,-0.471 h -0.283 v -1.414 h 0.566 c 0.094,0 0.283,0 0.377,0.094 0.094,0.096 0.188,0.189 0.188,0.283 0,0.189 -0.094,0.377 -0.281,0.377 l 0.281,0.66 h -0.377 l -0.188,-0.566 h -0.283 z m 0,-0.847 h 0.377 c 0.094,0 0.094,-0.096 0.094,-0.189 0,0 0,-0.094 -0.094,-0.094 h -0.377 z"
         fill="#ffffff"
         id="path6"
         style="clip-rule:evenodd;fill-rule:evenodd" /><path
         d="m 80.217,110.137 c -1.602,0.471 -2.733,0.66 -3.958,0.66 -2.45,0 -3.958,-1.508 -3.958,-4.336 0,-0.564 0.094,-1.131 0.188,-1.789 l 0.282,-1.885 0.283,-1.604 2.262,-13.569 h 4.994 l -0.565,3.015 h 3.11 l -0.754,4.995 h -3.109 l -1.414,8.104 c 0,0.283 -0.094,0.564 -0.094,0.754 0,1.037 0.565,1.508 1.791,1.508 0.66,0 1.037,-0.094 1.602,-0.189 z m 16.114,-0.19 a 17.74,17.74 0 0 1 -5.372,0.85 c -5.56,0 -8.858,-3.016 -8.858,-8.859 0,-6.784 3.864,-11.873 9.141,-11.873 4.241,0 6.973,2.827 6.973,7.256 0,1.414 -0.188,2.828 -0.658,4.9 H 87.19 v 0.566 c 0,2.355 1.508,3.486 4.523,3.486 1.885,0 3.581,-0.377 5.466,-1.225 z m -3.11,-11.779 v -0.941 c 0,-1.602 -0.942,-2.544 -2.45,-2.544 -1.696,0 -2.827,1.225 -3.298,3.486 h 5.748 z M 40.355,110.42 h -5.183 l 3.016,-18.753 -6.691,18.753 h -3.58 L 27.54,91.761 24.335,110.42 h -4.994 l 4.052,-24.408 h 7.444 l 0.284,15.078 4.994,-15.078 h 8.293 z m 12.534,-8.859 c -0.565,0 -0.66,-0.094 -1.037,-0.094 -2.921,0 -4.429,1.131 -4.429,3.016 0,1.318 0.753,2.074 1.884,2.074 2.545,0 3.487,-2.075 3.582,-4.996 z m 4.146,8.859 h -4.523 l 0.094,-2.074 c -1.131,1.602 -2.639,2.451 -5.466,2.451 -2.544,0 -4.617,-2.262 -4.617,-5.467 0,-0.941 0.188,-1.789 0.376,-2.543 0.848,-3.111 3.958,-4.996 8.67,-5.09 0.565,0 1.508,0 2.261,0.094 0.188,-0.658 0.188,-0.941 0.188,-1.318 0,-1.319 -1.036,-1.696 -3.486,-1.696 -1.508,0 -3.109,0.283 -4.335,0.565 l -0.659,0.283 h -0.377 l 0.754,-4.429 c 2.45,-0.754 4.146,-1.037 6.031,-1.037 4.523,0 6.879,1.979 6.879,5.843 0,0.941 0.094,1.695 -0.283,3.863 l -1.036,7.068 -0.188,1.225 -0.188,1.035 v 0.66 z m 64.363,-19.601 c 1.412,0 2.732,0.376 4.617,1.319 l 0.848,-5.372 c -0.471,-0.188 -0.566,-0.188 -1.225,-0.471 l -2.168,-0.471 c -0.66,-0.188 -1.414,-0.282 -2.355,-0.282 -2.545,0 -4.053,0 -5.654,1.036 -0.848,0.471 -1.885,1.225 -3.109,2.545 l -0.566,-0.189 -5.371,3.77 0.283,-2.073 h -5.561 l -3.109,19.79 h 5.184 l 1.885,-10.648 c 0,0 0.754,-1.508 1.131,-1.98 0.941,-1.225 1.789,-1.225 2.826,-1.225 h 0.377 c -0.094,1.131 -0.189,2.451 -0.189,3.77 0,6.502 3.676,10.555 9.33,10.555 1.414,0 2.639,-0.189 4.523,-0.754 l 0.941,-5.561 c -1.695,0.85 -3.109,1.225 -4.428,1.225 -3.016,0 -4.807,-2.166 -4.807,-5.936 0,-5.279 2.638,-9.048 6.597,-9.048 z m 44.006,-4.807 -1.131,6.974 c -1.225,-1.885 -2.732,-2.733 -4.711,-2.733 -2.732,0 -5.277,1.508 -6.879,4.429 l -3.299,-1.979 0.283,-2.073 h -5.561 l -3.203,19.79 h 5.277 l 1.695,-10.648 c 0,0 1.32,-1.508 1.697,-1.98 0.754,-0.941 1.602,-1.225 2.262,-1.225 a 18.507,18.507 0 0 0 -0.943,5.844 c 0,4.994 2.639,8.291 6.408,8.291 1.885,0 3.393,-0.658 4.807,-2.26 l -0.283,1.979 h 4.994 l 3.959,-24.408 h -5.372 z m -6.312,19.695 c -1.791,0 -2.639,-1.225 -2.639,-3.863 0,-3.863 1.602,-6.69 4.051,-6.69 1.791,0 2.734,1.413 2.734,3.958 0,3.863 -1.697,6.595 -4.146,6.595 z m -24.031,-4.146 c -0.564,0 -0.658,-0.094 -1.035,-0.094 -2.922,0 -4.43,1.131 -4.43,3.016 0,1.318 0.754,2.074 1.885,2.074 2.544,0 3.486,-2.075 3.58,-4.996 z m 4.146,8.859 h -4.521 l 0.094,-2.074 c -1.131,1.602 -2.639,2.451 -5.467,2.451 -2.543,0 -4.805,-2.168 -4.805,-5.467 0.094,-4.711 3.58,-7.633 9.234,-7.633 0.566,0 1.508,0 2.262,0.094 0.189,-0.658 0.189,-0.941 0.189,-1.318 0,-1.319 -1.037,-1.696 -3.488,-1.696 -1.508,0 -3.203,0.283 -4.334,0.565 l -0.754,0.283 h -0.283 l 0.754,-4.429 c 2.451,-0.754 4.146,-1.037 6.031,-1.037 4.523,0 6.879,1.979 6.879,5.843 0,0.941 0.094,1.695 -0.283,3.863 l -1.035,7.068 -0.189,1.225 -0.188,1.035 -0.096,0.66 z M 67.872,94.871 c 1.037,0 2.45,0.094 3.958,0.283 l 0.754,-4.618 c -1.508,-0.188 -3.486,-0.377 -4.711,-0.377 -5.749,0 -7.727,3.11 -7.727,6.785 0,2.355 1.13,4.146 3.863,5.371 2.167,1.037 2.544,1.227 2.544,2.074 0,1.225 -1.131,1.979 -3.204,1.979 -1.507,0 -2.921,-0.283 -4.618,-0.754 l -0.565,4.523 h 0.095 l 0.942,0.189 c 0.282,0.094 0.754,0.188 1.319,0.188 1.319,0.188 2.355,0.188 3.015,0.188 5.749,0 8.199,-2.166 8.199,-6.596 0,-2.732 -1.319,-4.334 -3.958,-5.465 -2.167,-1.037 -2.45,-1.131 -2.45,-2.074 0,-0.942 0.942,-1.696 2.544,-1.696 z"
         fill="#1b3771"
         id="path7"
         style="clip-rule:evenodd;fill-rule:evenodd" /><path
         d="m 128.277,85.259 -0.85,5.277 c -1.885,-0.942 -3.203,-1.319 -4.617,-1.319 -3.957,0 -6.689,3.77 -6.689,9.141 0,3.676 1.885,5.936 4.898,5.936 1.32,0 2.734,-0.375 4.43,-1.225 l -0.941,5.561 c -1.885,0.471 -3.109,0.66 -4.617,0.66 -5.561,0 -9.047,-3.959 -9.047,-10.461 0,-8.764 4.805,-14.794 11.684,-14.794 0.943,0 1.697,0.094 2.357,0.188 l 2.166,0.565 c 0.66,0.282 0.754,0.282 1.226,0.471 z m -16.679,3.675 c -0.189,-0.094 -0.377,-0.094 -0.566,-0.094 -1.695,0 -2.639,0.848 -4.24,3.204 l 0.471,-3.016 h -4.805 l -3.111,19.884 h 5.184 c 1.885,-12.156 2.355,-14.23 4.9,-14.23 h 0.377 c 0.471,-2.356 1.037,-4.146 1.979,-5.749 h -0.189 z m -30.062,19.695 c -1.414,0.471 -2.544,0.66 -3.77,0.66 -2.639,0 -4.146,-1.508 -4.146,-4.336 0,-0.564 0.094,-1.131 0.188,-1.789 l 0.282,-1.98 0.283,-1.508 2.262,-13.569 h 5.183 l -0.565,2.921 h 2.639 l -0.754,4.9 H 80.5 l -1.414,8.199 c 0,0.377 -0.094,0.66 -0.094,0.848 0,1.037 0.565,1.508 1.791,1.508 0.66,0 1.037,-0.094 1.414,-0.189 z M 61.464,95.342 c 0,2.449 1.225,4.24 3.958,5.465 2.167,1.037 2.45,1.32 2.45,2.262 0,1.225 -0.942,1.791 -3.016,1.791 -1.508,0 -2.921,-0.283 -4.618,-0.848 l -0.754,4.617 h 0.283 l 0.943,0.189 a 4.37,4.37 0 0 0 1.319,0.188 c 1.225,0.094 2.262,0.188 2.921,0.188 5.466,0 8.01,-2.072 8.01,-6.596 0,-2.732 -1.036,-4.334 -3.675,-5.561 -2.168,-0.941 -2.45,-1.224 -2.45,-2.072 0,-1.131 0.848,-1.696 2.544,-1.696 1.037,0 2.45,0.188 3.769,0.377 l 0.754,-4.618 c -1.319,-0.188 -3.393,-0.377 -4.617,-0.377 -5.842,0 -7.821,3.016 -7.821,6.691 z m 106.675,13.57 h -4.994 l 0.281,-1.979 c -1.414,1.508 -2.922,2.166 -4.807,2.166 -3.768,0 -6.312,-3.203 -6.312,-8.197 0,-6.597 3.863,-12.157 8.48,-12.157 2.074,0 3.582,0.848 4.994,2.733 l 1.131,-6.974 h 5.184 z m -7.729,-4.713 c 2.451,0 4.146,-2.732 4.146,-6.689 0,-2.451 -0.941,-3.864 -2.732,-3.864 -2.355,0 -4.053,2.732 -4.053,6.69 0,2.545 0.848,3.863 2.639,3.863 z m -62.949,4.242 c -1.79,0.564 -3.486,0.848 -5.371,0.848 -5.843,0 -8.858,-3.111 -8.858,-8.859 0,-6.878 3.864,-11.873 9.141,-11.873 4.241,0 6.973,2.827 6.973,7.256 0,1.414 -0.188,2.828 -0.564,4.9 H 88.416 c -0.095,0.283 -0.095,0.377 -0.095,0.566 0,2.262 1.508,3.486 4.618,3.486 1.791,0 3.487,-0.377 5.372,-1.225 z M 94.541,96.66 v -1.036 c 0,-1.602 -0.849,-2.544 -2.45,-2.544 -1.601,0 -2.827,1.319 -3.298,3.58 z m -52.866,12.252 h -5.183 l 3.015,-18.753 -6.691,18.753 h -3.58 l -0.377,-18.659 -3.204,18.659 h -4.806 l 4.052,-24.408 h 7.444 l 0.283,15.078 4.995,-15.078 h 8.104 z m 12.91,-8.859 c -0.566,-0.094 -0.848,-0.094 -1.225,-0.094 -2.921,0 -4.429,1.037 -4.429,3.016 0,1.225 0.753,2.074 1.884,2.074 2.168,0 3.676,-2.074 3.77,-4.996 z m 3.769,8.859 h -4.335 l 0.095,-2.074 c -1.319,1.604 -3.016,2.355 -5.466,2.355 -2.827,0 -4.712,-2.166 -4.712,-5.371 0,-4.805 3.299,-7.633 9.141,-7.633 0.565,0 1.319,0 2.073,0.094 0.188,-0.565 0.188,-0.847 0.188,-1.224 0,-1.319 -0.848,-1.791 -3.298,-1.791 -1.508,0 -3.204,0.188 -4.335,0.565 l -0.754,0.188 -0.471,0.094 0.754,-4.429 c 2.638,-0.754 4.334,-1.037 6.219,-1.037 4.523,0 6.879,1.979 6.879,5.749 0,1.037 -0.095,1.79 -0.472,3.958 l -1.036,7.068 -0.188,1.225 -0.095,1.035 -0.094,0.66 z m 78.404,-8.859 c -0.564,-0.094 -0.848,-0.094 -1.225,-0.094 -2.922,0 -4.43,1.037 -4.43,3.016 0,1.225 0.754,2.074 1.885,2.074 2.073,0 3.676,-2.074 3.77,-4.996 z m 3.769,8.859 h -4.334 l 0.094,-2.074 c -1.32,1.604 -3.109,2.355 -5.467,2.355 -2.826,0 -4.805,-2.166 -4.805,-5.371 0,-4.805 3.393,-7.633 9.234,-7.633 0.564,0 1.32,0 2.072,0.094 0.189,-0.565 0.189,-0.847 0.189,-1.224 0,-1.319 -0.848,-1.791 -3.299,-1.791 -1.508,0 -3.203,0.188 -4.334,0.565 l -0.754,0.188 -0.471,0.094 0.754,-4.429 c 2.637,-0.754 4.334,-1.037 6.219,-1.037 4.523,0 6.879,1.979 6.879,5.749 0,1.037 -0.094,1.79 -0.471,3.958 l -1.037,7.068 -0.188,1.225 -0.189,1.035 -0.094,0.66 v 0.568 z m 13.948,-19.978 c -0.096,-0.094 -0.283,-0.094 -0.473,-0.094 -1.695,0 -2.732,0.848 -4.334,3.204 l 0.471,-3.016 h -4.711 l -3.205,19.884 h 5.277 c 1.791,-12.156 2.357,-14.23 4.807,-14.23 h 0.377 c 0.471,-2.356 1.131,-4.146 1.979,-5.749 h -0.188 z"
         fill="#ffffff"
         id="path8"
         style="clip-rule:evenodd;fill-rule:evenodd" /></g></g></svg>
