<?xml version="1.0" encoding="UTF-8" standalone="no"?>
<!-- Created with Inkscape (http://www.inkscape.org/) -->

<svg
   width="40"
   height="30"
   viewBox="0 0 10.583333 7.9375"
   version="1.1"
   id="svg1"><g
     id="layer1"><g
       id="g2"
       transform="matrix(1.1778706,0,0,1.1778706,-0.92130359,0.04840465)"><g
         fill="#2566af"
         id="g1"
         transform="matrix(0.07532813,0,0,0.07532813,-0.06345475,-1.9571026)"><path
           d="m 62.935,89.571 h -9.733 l 6.083,-37.384 h 9.734 z M 45.014,52.187 35.735,77.9 34.637,72.363 34.638,72.365 31.363,55.553 c 0,0 -0.396,-3.366 -4.617,-3.366 h -15.34 l -0.18,0.633 c 0,0 4.691,0.976 10.181,4.273 l 8.456,32.479 H 40.004 L 55.489,52.187 Z m 76.555,37.384 h 8.937 l -7.792,-37.385 h -7.824 c -3.613,0 -4.493,2.786 -4.493,2.786 L 95.881,89.571 h 10.146 l 2.029,-5.553 h 12.373 z m -10.71,-13.224 5.114,-13.99 2.877,13.99 z m -14.217,-15.17 1.389,-8.028 c 0,0 -4.286,-1.63 -8.754,-1.63 -4.83,0 -16.3,2.111 -16.3,12.376 0,9.658 13.462,9.778 13.462,14.851 0,5.073 -12.075,4.164 -16.06,0.965 l -1.447,8.394 c 0,0 4.346,2.111 10.986,2.111 6.642,0 16.662,-3.439 16.662,-12.799 0,-9.72 -13.583,-10.625 -13.583,-14.851 0.001,-4.227 9.48,-3.684 13.645,-1.389 z"
           id="path1" /></g><path
         d="M 2.5457602,3.4939421 2.2990612,2.2275256 c 0,0 -0.02983,-0.2535545 -0.34779,-0.2535545 H 0.79573725 l -0.01356,0.047683 c 0,0 0.55539395,0.1151014 1.08811495,0.546355 0.509369,0.4121956 0.675467,0.9259333 0.675467,0.9259333 z"
         fill="#e6a540"
         id="path2"
         style="strokeWidth:0.0753282" /></g><path
       fill="none"
       d="M -326.66911,-325.89047 H 334.78923 V 335.56787 H -326.66911 Z"
       id="path3"
       style="strokeWidth:4.66697" /></g></svg>
