<svg width="103" height="103" viewBox="0 0 103 103" fill="none" xmlns="http://www.w3.org/2000/svg">
<path d="M70.8125 37.037C69.0529 37.037 67.5938 35.5778 67.5938 33.8182V27.8957C67.5938 23.3895 65.6625 19.012 62.315 15.9649C58.9246 12.8749 54.5471 11.4586 49.9121 11.8878C42.1871 12.6174 35.4062 20.5141 35.4062 28.7541V32.917C35.4062 34.6766 33.9471 36.1357 32.1875 36.1357C30.4279 36.1357 28.9688 34.6766 28.9688 32.917V28.7111C28.9688 17.1666 38.2817 6.52323 49.3112 5.45032C55.7487 4.84948 61.9287 6.86657 66.6496 11.2011C71.3275 15.4499 74.0312 21.5441 74.0312 27.8957V33.8182C74.0312 35.5778 72.5721 37.037 70.8125 37.037Z" fill="#C2CBDF"/>
<path d="M64.375 97.6353H38.625C18.7975 97.6353 15.1066 88.4082 14.1625 79.4387L10.9437 53.7316C10.4716 49.0966 10.3 42.4445 14.8062 37.4662C18.6687 33.1745 25.0633 31.1145 34.3333 31.1145H68.6666C77.9795 31.1145 84.3741 33.2174 88.1937 37.4662C92.657 42.4445 92.5283 49.0966 92.0562 53.6458L88.8375 79.4387C87.8933 88.4082 84.2024 97.6353 64.375 97.6353ZM34.3333 37.552C27.0804 37.552 22.102 38.9683 19.57 41.8008C17.467 44.1183 16.7804 47.6803 17.3383 53.002L20.557 78.7091C21.2866 85.5758 23.175 91.2407 38.625 91.2407H64.375C79.825 91.2407 81.7133 85.6187 82.4429 78.7949L85.6616 53.002C86.2195 47.7662 85.5329 44.2041 83.43 41.8437C80.8979 38.9683 75.9195 37.552 68.6666 37.552H34.3333Z" fill="#C2CBDF"/>
<path d="M66.1775 56.4354C63.7741 56.4354 61.8429 54.5041 61.8429 52.1437C61.8429 49.7833 63.7741 47.8521 66.1346 47.8521C68.495 47.8521 70.4262 49.7833 70.4262 52.1437C70.4262 54.5041 68.5379 56.4354 66.1775 56.4354Z" fill="#C2CBDF"/>
<path d="M36.1359 56.4354C33.7325 56.4354 31.8013 54.5041 31.8013 52.1437C31.8013 49.7833 33.7325 47.8521 36.0929 47.8521C38.4534 47.8521 40.3846 49.7833 40.3846 52.1437C40.3846 54.5041 38.4963 56.4354 36.1359 56.4354Z" fill="#C2CBDF"/>
</svg>
