<svg width="32" height="32" viewBox="0 0 32 32" fill="none" xmlns="http://www.w3.org/2000/svg">
<path d="M5.99519 8.00183C5.72026 7.99502 5.45966 8.1195 5.29857 8.33456C3.59004 10.5516 2.66666 13.2424 2.66666 16.0048C2.66666 18.7671 3.58985 21.4577 5.29857 23.6751C5.47677 23.9061 5.76918 24.0279 6.06586 23.9946C6.36236 23.9612 6.61814 23.7779 6.73643 23.5135C6.85473 23.2493 6.8179 22.944 6.6397 22.7129C5.14456 20.7727 4.33332 18.4222 4.33332 16.0051C4.33332 13.5881 5.1447 11.2355 6.6397 9.29546C6.76563 9.13744 6.82609 8.93995 6.80953 8.74122C6.79298 8.54266 6.70053 8.35701 6.55005 8.22032C6.39956 8.08382 6.20183 8.00597 5.99519 8.0022V8.00183ZM25.9805 8.00183C25.7772 8.01224 25.585 8.09421 25.4401 8.23196C25.2952 8.36972 25.2074 8.55393 25.1936 8.74979C25.1799 8.94566 25.2409 9.13956 25.3651 9.29507C26.8601 11.2351 27.6667 13.5874 27.6667 16.0047C27.6667 18.4221 26.8605 20.7725 25.3651 22.7125C25.1869 22.9436 25.1501 23.2489 25.2684 23.5131C25.3869 23.7775 25.6425 23.9608 25.939 23.9942C26.2357 24.0275 26.5281 23.9057 26.7065 23.6747C28.4152 21.4575 29.3333 18.7669 29.3333 16.0044C29.3333 13.2423 28.4148 10.5516 26.7065 8.33418C26.5394 8.1105 26.2656 7.98494 25.9805 8.00145L25.9805 8.00183ZM8.76853 10.3686C8.49416 10.3719 8.23915 10.5051 8.08662 10.7249C6.97429 12.2758 6.38257 14.1189 6.38257 16.0046C6.38257 17.8907 6.9741 19.7333 8.08662 21.2843C8.21069 21.4635 8.40415 21.5873 8.62381 21.6276C8.84331 21.668 9.07062 21.6215 9.2542 21.4989C9.43798 21.3762 9.56298 21.1875 9.60111 20.9751C9.63925 20.7627 9.58735 20.5444 9.45695 20.3694C8.53695 19.0867 8.04905 17.564 8.04905 16.0046C8.04905 14.4453 8.53714 12.9207 9.45695 11.6382C9.57656 11.4764 9.62957 11.2775 9.60595 11.08C9.58233 10.8825 9.48355 10.7004 9.32898 10.5691C9.17422 10.4377 8.97462 10.3663 8.7685 10.3686L8.76853 10.3686ZM23.2071 10.3686C23.0044 10.3731 22.8104 10.4488 22.6614 10.5815C22.5124 10.7143 22.4186 10.8947 22.3978 11.0894C22.377 11.2838 22.4303 11.4789 22.5479 11.6382C23.4675 12.9207 23.9573 14.4454 23.9573 16.0046C23.9573 17.5641 23.4629 19.0867 22.5429 20.3694H22.5431C22.4127 20.5445 22.3608 20.7628 22.3989 20.9752C22.4371 21.1875 22.5621 21.3762 22.7458 21.4989C22.9296 21.6216 23.1567 21.6681 23.3762 21.6277C23.5959 21.5873 23.7894 21.4636 23.9136 21.2844C25.0263 19.7334 25.6242 17.8907 25.6242 16.0046C25.6242 14.1189 25.0258 12.2759 23.9136 10.7249C23.7561 10.4982 23.4901 10.364 23.2071 10.3687L23.2071 10.3686ZM16.0033 10.5711C12.9013 10.5711 10.3685 13.0136 10.3685 16.0047C10.3685 18.9959 12.9014 21.4383 16.0033 21.4383C19.1053 21.4383 21.6381 18.9958 21.6381 16.0047C21.6381 13.0135 19.1052 10.5711 16.0033 10.5711Z" fill="#9600CF"/>
</svg>
