<svg width="49" height="49" viewBox="0 0 49 49" fill="none" xmlns="http://www.w3.org/2000/svg">
<path d="M46.7045 24.5046C46.7045 25.9153 44.4316 27.0848 44.1678 28.4182C43.896 29.792 45.5433 31.7397 45.0192 33.0037C44.4859 34.2898 41.9384 34.4995 41.1731 35.6427C40.4018 36.7946 41.1779 39.2279 40.2012 40.2046C39.2245 41.181 36.7913 40.4054 35.6394 41.1765C34.4961 41.9417 34.2864 44.489 33.0003 45.0224C31.7364 45.5467 29.7886 43.8992 28.415 44.1709C27.1608 44.419 26.2386 46.7074 24.5017 46.7074C23.0907 46.7074 21.9214 44.4347 20.5881 44.1709C19.2142 43.8992 17.2667 45.5465 16.0026 45.0224C14.7164 44.489 14.5068 41.9417 13.3637 41.1763C12.2116 40.405 9.77857 41.181 8.8019 40.2041C7.82524 39.2277 8.60106 36.7944 7.82998 35.6425C7.06472 34.4995 4.51724 34.2896 3.98386 33.0035C3.45975 31.7395 5.10729 29.7918 4.83532 28.4179C4.57154 27.0846 2.29883 25.9153 2.29883 24.5046C2.29883 23.0939 4.57154 21.9243 4.83554 20.591C5.10729 19.2174 3.45975 17.2694 3.98408 16.0055C4.51745 14.7194 7.06472 14.5097 7.8302 13.3664C8.60127 12.2146 7.82545 9.78129 8.80212 8.80462C9.77879 7.82795 12.2118 8.60398 13.3639 7.83269C14.507 7.06743 14.7167 4.51995 16.0028 3.98679C17.2667 3.46268 19.2145 5.11 20.5883 4.83825C21.9214 4.57447 23.091 2.30176 24.5017 2.30176C25.9124 2.30176 27.0819 4.57447 28.415 4.83825C29.7889 5.11 31.7366 3.46268 33.0005 3.98679C34.2867 4.52017 34.4963 7.06743 35.6396 7.83291C36.7915 8.6042 39.2247 7.82817 40.2014 8.80483C41.1779 9.7815 40.402 12.2148 41.1733 13.3666C41.9386 14.5097 44.4859 14.7196 45.0192 16.0057C45.5436 17.2697 43.896 19.2174 44.1678 20.5912C44.4316 21.9246 46.7045 23.0939 46.7045 24.5046Z" fill="#AC40D7"/>
<path d="M42.1596 31.3405C45.9375 21.5873 41.0935 10.6183 31.3404 6.84048C21.5872 3.06264 10.6182 7.90658 6.84038 17.6597C3.06254 27.4129 7.90648 38.3819 17.6596 42.1597C27.4128 45.9376 38.3818 41.0936 42.1596 31.3405Z" fill="white"/>
<path d="M10.4835 19.1802L10.8254 19.9087L11.5901 20.0258L11.0366 20.5924L11.1673 21.3933L10.4835 21.0154L9.7997 21.3933L9.93043 20.5924L9.37695 20.0258L10.1416 19.9087L10.4835 19.1802Z" fill="#4EA5DC"/>
<path d="M17.8182 19.1802L17.9929 19.5346L18.3842 19.5916L18.1012 19.8673L18.1679 20.257L17.8182 20.0732L17.4681 20.257L17.535 19.8673L17.252 19.5916L17.6432 19.5346L17.8182 19.1802Z" fill="#4EA5DC"/>
<path d="M38.6051 16.2295L38.0475 16.3506L39.5354 22.8247C39.0733 22.721 38.4966 22.8891 38.0376 23.3088C37.3782 23.9111 37.2122 24.8025 37.6658 25.2986C38.1208 25.795 39.0229 25.7093 39.6825 25.1065C40.1775 24.6521 40.3956 24.0348 40.2768 23.5453L40.2792 23.5447L38.6051 16.2295Z" fill="#4EA5DC"/>
<path d="M29.8972 24.7109C29.0522 23.5004 27.7599 22.8401 26.3928 22.9389C26.3801 22.9059 26.3671 22.8729 26.3544 22.8396C26.0026 21.9428 25.604 21.0541 25.2186 20.1947C25.0767 19.8782 24.935 19.5618 24.795 19.2443C25.6822 18.2744 26.6311 17.1189 27.0666 15.6389C27.4481 14.3437 27.4376 12.4796 26.1529 11.4886C25.794 11.2119 25.3566 11.0654 24.8878 11.0654C24.434 11.0654 23.9632 11.2059 23.5619 11.4611C22.6903 12.0147 22.1703 13.1397 22.1354 14.5474C22.0991 16.0244 22.701 17.4531 23.2321 18.7137L23.2818 18.8327C23.3048 18.8876 23.3284 18.9424 23.3516 18.9969C23.2829 19.0673 23.2141 19.1378 23.1455 19.2078C22.7296 19.6325 22.2995 20.0718 21.9237 20.5132C20.6229 22.0414 19.1122 24.1235 18.9751 26.6805C18.8706 28.6317 19.7578 30.5605 21.3483 31.8402C22.2681 32.5805 23.5038 32.9879 24.828 32.9879C25.4247 32.9879 26.0149 32.908 26.588 32.7495C26.4223 34.0108 26.0601 34.9263 25.4853 35.5407C25.059 35.9966 24.2332 36.3273 23.5217 36.3273C23.0964 36.3273 22.529 36.2149 22.2416 35.6793C22.0395 35.3026 22.1758 34.8141 22.4061 34.5455C22.5275 34.4041 22.6974 34.3191 22.9562 34.2702C23.1938 34.2263 23.3389 34.4076 23.3405 34.5305C23.3422 34.6623 23.1349 34.6794 23.0713 34.6815C22.678 34.6944 22.4479 35.064 22.4525 35.4139C22.4571 35.7643 22.6885 36.0186 23.0024 36.0186L23.0226 36.0183C23.7316 35.995 24.3465 35.5007 24.5183 34.8166C24.6769 34.1849 24.4311 33.5662 23.8612 33.1613C23.6047 32.9796 23.3217 32.8872 23.0195 32.8872C22.1371 32.8872 21.23 33.6967 20.9976 34.6919C20.8557 35.2984 20.9496 35.9215 21.2618 36.4463C21.6096 37.0311 22.2071 37.448 22.8603 37.5611C23.0968 37.602 23.3366 37.6228 23.5727 37.6228C24.8851 37.6228 26.0651 36.9923 26.8096 35.8929C27.4117 35.0044 27.7488 33.8422 27.8663 32.246C29.2942 31.4961 30.2709 30.2722 30.6241 28.7844C30.966 27.3471 30.7008 25.8622 29.8972 24.7109ZM29.2407 29.1019C28.9907 29.7271 28.5372 30.2745 27.9173 30.7034C27.9177 30.4427 27.9152 30.1969 27.9125 29.9768C27.8895 28.1354 27.5588 26.3124 26.8752 24.2707C27.1906 24.2841 27.5001 24.3508 27.7973 24.4693C28.6179 24.7968 29.038 25.5068 29.2463 26.0449C29.6154 26.999 29.6133 28.1705 29.2407 29.1019ZM23.8831 20.2235C23.9489 20.3739 24.015 20.5238 24.081 20.6739C24.4483 21.5081 24.8268 22.368 25.176 23.2302C24.3987 23.5667 23.7119 24.3118 23.3221 25.2486C22.933 26.1842 22.8845 27.2027 23.1898 28.0432C23.5924 29.1507 24.6334 29.9334 25.8419 30.0369C26.2022 30.0669 26.476 29.7773 26.49 29.3849C26.5028 29.0169 26.2745 28.7296 25.9468 28.7014C25.0788 28.6271 24.2123 28.0132 24.2336 26.8096C24.2526 25.7428 24.7833 24.8957 25.6667 24.4989C25.6711 24.5113 25.6757 24.5236 25.6801 24.5363C26.4047 26.5424 26.7297 28.5529 26.703 30.8632C26.7013 31.0115 26.6986 31.163 26.694 31.3169C26.0707 31.5347 25.3998 31.6492 24.7419 31.6492C24.3247 31.6492 23.932 31.603 23.5748 31.5118C21.5256 30.9882 20.074 28.8405 20.1986 26.5159C20.3309 24.0584 22.2907 21.9345 23.8831 20.2235ZM25.7246 15.7771C25.3875 16.6494 24.8044 17.4116 24.2721 18.016C24.0338 17.4344 23.8444 16.9305 23.6843 16.4528C23.3485 15.4521 23.2078 14.0571 23.6507 13.1965C23.8718 12.7669 24.211 12.5113 24.6874 12.4145C24.7904 12.3935 24.8888 12.3828 24.9797 12.3828C25.3139 12.3828 25.5597 12.523 25.732 12.8106C26.1771 13.5564 26.0103 15.038 25.7246 15.7771Z" fill="#4EA5DC" fill-opacity="0.13"/>
<path d="M16.9396 18.1C16.3996 18.1 15.9762 17.9967 15.6696 17.79C15.3696 17.5767 15.1562 17.2833 15.0296 16.91C14.9096 16.53 14.8496 16.0967 14.8496 15.61V12.25C14.8496 11.7567 14.9129 11.33 15.0396 10.97C15.1729 10.6033 15.3896 10.32 15.6896 10.12C15.9962 9.92 16.4129 9.82 16.9396 9.82C17.4596 9.82 17.8696 9.92 18.1696 10.12C18.4762 10.32 18.6929 10.6033 18.8196 10.97C18.9462 11.33 19.0096 11.7567 19.0096 12.25V15.62C19.0096 16.1067 18.9462 16.5367 18.8196 16.91C18.6996 17.2767 18.4896 17.5667 18.1896 17.78C17.8896 17.9933 17.4729 18.1 16.9396 18.1ZM16.9396 17.49C17.2929 17.49 17.5629 17.42 17.7496 17.28C17.9362 17.1333 18.0629 16.9333 18.1296 16.68C18.2029 16.42 18.2396 16.12 18.2396 15.78V12.11C18.2396 11.77 18.2029 11.4733 18.1296 11.22C18.0629 10.9667 17.9362 10.7733 17.7496 10.64C17.5629 10.5 17.2929 10.43 16.9396 10.43C16.5796 10.43 16.3029 10.5 16.1096 10.64C15.9229 10.7733 15.7929 10.9667 15.7196 11.22C15.6529 11.4733 15.6196 11.77 15.6196 12.11V15.78C15.6196 16.12 15.6529 16.42 15.7196 16.68C15.7929 16.9333 15.9229 17.1333 16.1096 17.28C16.3029 17.42 16.5796 17.49 16.9396 17.49ZM22.2535 18.1C21.7068 18.1 21.2801 18.0033 20.9735 17.81C20.6735 17.61 20.4668 17.3367 20.3535 16.99C20.2401 16.6367 20.1835 16.2367 20.1835 15.79V9.9H20.9235V15.81C20.9235 16.1233 20.9568 16.41 21.0235 16.67C21.0968 16.9233 21.2301 17.1233 21.4235 17.27C21.6168 17.4167 21.8935 17.49 22.2535 17.49C22.6001 17.49 22.8701 17.4167 23.0635 17.27C23.2568 17.1167 23.3901 16.9133 23.4635 16.66C23.5435 16.4067 23.5835 16.1233 23.5835 15.81V9.9H24.3135V15.79C24.3135 16.2367 24.2535 16.6367 24.1335 16.99C24.0135 17.3367 23.8035 17.61 23.5035 17.81C23.2035 18.0033 22.7868 18.1 22.2535 18.1ZM27.5246 18.1C26.9779 18.1 26.5546 17.9867 26.2546 17.76C25.9612 17.5333 25.7579 17.23 25.6446 16.85C25.5312 16.4633 25.4746 16.0367 25.4746 15.57V12.35C25.4746 11.85 25.5312 11.41 25.6446 11.03C25.7646 10.65 25.9746 10.3533 26.2746 10.14C26.5746 9.92667 26.9912 9.82 27.5246 9.82C28.0112 9.82 28.3912 9.91333 28.6646 10.1C28.9446 10.2867 29.1446 10.5533 29.2646 10.9C29.3846 11.24 29.4446 11.6467 29.4446 12.12V12.61H28.7246V12.14C28.7246 11.7867 28.6946 11.4833 28.6346 11.23C28.5812 10.9767 28.4679 10.78 28.2946 10.64C28.1212 10.5 27.8679 10.43 27.5346 10.43C27.1679 10.43 26.8912 10.5067 26.7046 10.66C26.5246 10.8067 26.4012 11.0167 26.3346 11.29C26.2746 11.5633 26.2446 11.88 26.2446 12.24V15.69C26.2446 16.09 26.2812 16.4233 26.3546 16.69C26.4346 16.9567 26.5679 17.1567 26.7546 17.29C26.9412 17.4233 27.2012 17.49 27.5346 17.49C27.8746 17.49 28.1279 17.4167 28.2946 17.27C28.4679 17.1233 28.5812 16.92 28.6346 16.66C28.6946 16.3933 28.7246 16.0833 28.7246 15.73V15.2H29.4446V15.68C29.4446 16.1533 29.3879 16.5733 29.2746 16.94C29.1679 17.3 28.9746 17.5833 28.6946 17.79C28.4212 17.9967 28.0312 18.1 27.5246 18.1ZM27.4346 20.04C27.3679 20.04 27.2979 20.0333 27.2246 20.02C27.1512 20.0133 27.0779 20.0033 27.0046 19.99V19.61C27.0579 19.6233 27.1112 19.6333 27.1646 19.64C27.2246 19.6467 27.2812 19.65 27.3346 19.65C27.5412 19.65 27.7012 19.6167 27.8146 19.55C27.9279 19.49 27.9846 19.3867 27.9846 19.24C27.9846 19.1333 27.9546 19.0467 27.8946 18.98C27.8412 18.9133 27.7579 18.8567 27.6446 18.81C27.5379 18.77 27.4046 18.74 27.2446 18.72V18H27.6246V18.5C27.9312 18.5133 28.1612 18.5867 28.3146 18.72C28.4679 18.8533 28.5446 19.03 28.5446 19.25C28.5446 19.4233 28.4979 19.57 28.4046 19.69C28.3179 19.81 28.1912 19.8967 28.0246 19.95C27.8579 20.01 27.6612 20.04 27.4346 20.04ZM30.1948 18L31.9048 9.9H32.7048L34.4248 18H33.6748L33.2748 15.83H31.3448L30.9348 18H30.1948ZM31.4548 15.28H33.1748L32.3148 10.91L31.4548 15.28Z" fill="#AC40D7"/>
<path d="M23.3098 26.5L24.6778 20.02H25.3178L26.6938 26.5H26.0938L25.7738 24.764H24.2298L23.9018 26.5H23.3098ZM24.3178 24.324H25.6938L25.0058 20.828L24.3178 24.324Z" fill="#AC40D7"/>
<path d="M11.4554 37L11.6554 28.9H12.4154L14.0154 35.93L15.6454 28.9H16.4054L16.6054 37H15.9754L15.8154 30.55L14.2654 37H13.7754L12.2454 30.56L12.0854 37H11.4554ZM19.7312 37.1C19.1845 37.1 18.7579 37.0033 18.4512 36.81C18.1512 36.61 17.9445 36.3367 17.8312 35.99C17.7179 35.6367 17.6612 35.2367 17.6612 34.79V28.9H18.4012V34.81C18.4012 35.1233 18.4345 35.41 18.5012 35.67C18.5745 35.9233 18.7079 36.1233 18.9012 36.27C19.0945 36.4167 19.3712 36.49 19.7312 36.49C20.0779 36.49 20.3479 36.4167 20.5412 36.27C20.7345 36.1167 20.8679 35.9133 20.9412 35.66C21.0212 35.4067 21.0612 35.1233 21.0612 34.81V28.9H21.7912V34.79C21.7912 35.2367 21.7312 35.6367 21.6112 35.99C21.4912 36.3367 21.2812 36.61 20.9812 36.81C20.6812 37.0033 20.2645 37.1 19.7312 37.1ZM19.5412 28.42L20.1712 26.46H20.9012L19.9212 28.42H19.5412ZM24.6423 37.1C24.2023 37.1 23.8356 37.01 23.5423 36.83C23.2556 36.6433 23.039 36.3867 22.8923 36.06C22.7456 35.7267 22.6556 35.34 22.6223 34.9L23.2923 34.7C23.3256 35.0333 23.3856 35.3367 23.4723 35.61C23.559 35.8767 23.6956 36.09 23.8823 36.25C24.069 36.4033 24.3256 36.48 24.6523 36.48C25.0123 36.48 25.2923 36.3867 25.4923 36.2C25.6923 36.0133 25.7923 35.7167 25.7923 35.31C25.7923 34.95 25.7023 34.64 25.5223 34.38C25.349 34.12 25.109 33.8467 24.8023 33.56L23.3723 32.19C23.119 31.9433 22.9323 31.69 22.8123 31.43C22.6923 31.1633 22.6323 30.8733 22.6323 30.56C22.6323 30 22.799 29.57 23.1323 29.27C23.4656 28.97 23.909 28.82 24.4623 28.82C24.749 28.82 25.0056 28.8567 25.2323 28.93C25.4656 29.0033 25.6623 29.1233 25.8223 29.29C25.989 29.45 26.119 29.66 26.2123 29.92C26.3056 30.18 26.369 30.4967 26.4023 30.87L25.7523 31.04C25.7256 30.7 25.669 30.41 25.5823 30.17C25.5023 29.9233 25.3723 29.7367 25.1923 29.61C25.019 29.4833 24.7756 29.42 24.4623 29.42C24.129 29.42 23.8556 29.5067 23.6423 29.68C23.429 29.8533 23.3223 30.1233 23.3223 30.49C23.3223 30.71 23.3623 30.91 23.4423 31.09C23.529 31.27 23.679 31.4633 23.8923 31.67L25.3223 33.02C25.6423 33.32 25.919 33.6533 26.1523 34.02C26.3856 34.3867 26.5023 34.8 26.5023 35.26C26.5023 35.6667 26.4223 36.0067 26.2623 36.28C26.109 36.5533 25.8923 36.76 25.6123 36.9C25.3323 37.0333 25.009 37.1 24.6423 37.1ZM27.3419 37V28.9H28.1019V37H27.3419ZM31.2187 37.1C30.672 37.1 30.2487 36.9867 29.9487 36.76C29.6554 36.5333 29.452 36.23 29.3387 35.85C29.2254 35.4633 29.1687 35.0367 29.1687 34.57V31.35C29.1687 30.85 29.2254 30.41 29.3387 30.03C29.4587 29.65 29.6687 29.3533 29.9687 29.14C30.2687 28.9267 30.6854 28.82 31.2187 28.82C31.7054 28.82 32.0854 28.9133 32.3587 29.1C32.6387 29.2867 32.8387 29.5533 32.9587 29.9C33.0787 30.24 33.1387 30.6467 33.1387 31.12V31.61H32.4187V31.14C32.4187 30.7867 32.3887 30.4833 32.3287 30.23C32.2754 29.9767 32.162 29.78 31.9887 29.64C31.8154 29.5 31.562 29.43 31.2287 29.43C30.862 29.43 30.5854 29.5067 30.3987 29.66C30.2187 29.8067 30.0954 30.0167 30.0287 30.29C29.9687 30.5633 29.9387 30.88 29.9387 31.24V34.69C29.9387 35.09 29.9754 35.4233 30.0487 35.69C30.1287 35.9567 30.262 36.1567 30.4487 36.29C30.6354 36.4233 30.8954 36.49 31.2287 36.49C31.5687 36.49 31.822 36.4167 31.9887 36.27C32.162 36.1233 32.2754 35.92 32.3287 35.66C32.3887 35.3933 32.4187 35.0833 32.4187 34.73V34.2H33.1387V34.68C33.1387 35.1533 33.082 35.5733 32.9687 35.94C32.862 36.3 32.6687 36.5833 32.3887 36.79C32.1154 36.9967 31.7254 37.1 31.2187 37.1ZM33.6889 37L35.3989 28.9H36.1989L37.9189 37H37.1689L36.7689 34.83H34.8389L34.4289 37H33.6889ZM34.9489 34.28H36.6689L35.8089 29.91L34.9489 34.28Z" fill="#AC40D7"/>
</svg>
