<svg width="20" height="20" viewBox="0 0 20 20" fill="none" xmlns="http://www.w3.org/2000/svg">
<g id="open-link">
<path id="Vector" d="M9.249 2.5C6.20817 2.50548 4.61582 2.58014 3.59819 3.59793C2.5 4.6963 2.5 6.4641 2.5 9.99965C2.5 13.5352 2.5 15.3031 3.59819 16.4014C4.69638 17.4998 6.4639 17.4998 9.99892 17.4998C13.5339 17.4998 15.3014 17.4998 16.3997 16.4014C17.4173 15.3837 17.4919 13.791 17.4974 10.7497M17.1301 2.91354L9.20733 10.8823M17.1301 2.91354C16.7185 2.50136 13.9454 2.53978 13.3592 2.54812M17.1301 2.91354C17.5418 3.32572 17.5034 6.10238 17.4951 6.68938" stroke="#9600CF" stroke-width="1.5" stroke-linecap="round" stroke-linejoin="round"/>
</g>
</svg>
