<svg width="24" height="24" viewBox="0 0 24 24" fill="none" xmlns="http://www.w3.org/2000/svg">
<g clip-path="url(#clip0_5700_3170)">
<path fill-rule="evenodd" clip-rule="evenodd" d="M13.8686 0.144377C13.7018 0.118263 13.5314 0.125261 13.3673 0.164973C13.2032 0.204684 13.0485 0.276331 12.9121 0.375822C12.7757 0.475313 12.6602 0.600701 12.5722 0.744825C12.4843 0.88895 12.4255 1.04899 12.3994 1.21581C12.3733 1.38262 12.3803 1.55295 12.42 1.71706C12.4597 1.88117 12.5314 2.03585 12.6309 2.17228C12.7304 2.3087 12.8558 2.42419 12.9999 2.51215C13.144 2.60012 13.304 2.65883 13.4709 2.68495C15.8096 3.06155 17.921 4.30438 19.3853 6.1664C20.8497 8.02841 21.5598 10.3733 21.3745 12.7349C21.1891 15.0965 20.122 17.3018 18.3851 18.9127C16.6482 20.5235 14.3688 21.4218 12 21.4289C10.1095 21.4293 8.2625 20.8615 6.69863 19.7993C5.13477 18.737 3.9262 17.2293 3.22971 15.4718C3.17122 15.3099 3.08081 15.1615 2.96387 15.0352C2.84692 14.9089 2.70581 14.8074 2.54889 14.7366C2.39198 14.6659 2.22246 14.6274 2.05039 14.6234C1.87832 14.6194 1.7072 14.65 1.54717 14.7134C1.38715 14.7767 1.24147 14.8716 1.11879 14.9923C0.9961 15.113 0.8989 15.2571 0.83295 15.4161C0.766999 15.5751 0.733641 15.7457 0.734852 15.9178C0.736063 16.0899 0.771819 16.2601 0.84 16.4181C1.86988 19.0125 3.77179 21.167 6.21849 22.5106C8.66519 23.8543 11.5037 24.3033 14.2457 23.7803C16.9876 23.2572 19.4615 21.795 21.2418 19.645C23.0221 17.495 23.9975 14.7918 24 12.0004C23.9999 9.14142 22.9793 6.37638 21.122 4.20291C19.2647 2.02943 16.6925 0.590247 13.8686 0.144377ZM10.5669 1.13352C10.6091 1.29719 10.6187 1.46758 10.595 1.63495C10.5713 1.80232 10.5149 1.96338 10.4289 2.10891C10.3429 2.25444 10.2291 2.38159 10.0939 2.48308C9.95875 2.58457 9.80489 2.65841 9.64114 2.70038C9.21167 2.81088 8.79061 2.95181 8.38114 3.12209C8.22525 3.18693 8.0581 3.22042 7.88926 3.22066C7.72042 3.2209 7.55318 3.18788 7.3971 3.12349C7.24102 3.0591 7.09915 2.9646 6.97959 2.84538C6.86003 2.72616 6.76512 2.58456 6.70029 2.42866C6.63545 2.27276 6.60196 2.10562 6.60172 1.93678C6.60147 1.76794 6.63449 1.6007 6.69888 1.44462C6.76327 1.28854 6.85778 1.14667 6.977 1.02711C7.09622 0.907548 7.23782 0.812641 7.39371 0.747806C7.91143 0.531806 8.448 0.351806 9.00171 0.20952C9.16527 0.167521 9.33549 0.158151 9.50266 0.181944C9.66984 0.205738 9.83069 0.262229 9.97603 0.348191C10.1214 0.434153 10.2484 0.547903 10.3497 0.682945C10.4511 0.817987 10.5249 0.969961 10.5669 1.13352ZM5.46 3.24723C5.69717 3.49192 5.8275 3.82076 5.82236 4.16148C5.81721 4.50221 5.67702 4.82696 5.43257 5.06438C4.79515 5.68564 4.24706 6.39239 3.804 7.16438C3.72251 7.31517 3.61168 7.44814 3.47805 7.55548C3.34442 7.66281 3.19067 7.74235 3.02585 7.7894C2.86103 7.83645 2.68847 7.85007 2.51831 7.82947C2.34815 7.80886 2.18383 7.75443 2.03501 7.66939C1.88619 7.58435 1.75588 7.47041 1.65173 7.33428C1.54759 7.19814 1.47172 7.04256 1.42858 6.87667C1.38544 6.71079 1.3759 6.53795 1.40053 6.36833C1.42516 6.1987 1.48346 6.03571 1.572 5.88895C2.13345 4.90635 2.83059 4.0078 3.64286 3.21981C3.88755 2.98264 4.21638 2.8523 4.55711 2.85745C4.89783 2.86259 5.22258 3.00279 5.46 3.24723ZM1.57029 9.05181C1.90783 9.0994 2.21266 9.27909 2.41776 9.55137C2.62285 9.82365 2.71143 10.1662 2.664 10.5038C2.60217 10.944 2.57124 11.3879 2.57143 11.8324C2.57143 12.1734 2.43597 12.5004 2.19485 12.7415C1.95373 12.9826 1.62671 13.1181 1.28571 13.1181C0.944722 13.1181 0.617695 12.9826 0.376577 12.7415C0.135459 12.5004 0 12.1734 0 11.8324C0 11.2615 0.0394286 10.6975 0.118286 10.1455C0.165876 9.80797 0.345565 9.50314 0.617848 9.29805C0.89013 9.09295 1.23272 9.00438 1.57029 9.05181ZM7.71429 15.2267V8.77409C7.71444 8.48199 7.78923 8.19478 7.93156 7.9397C8.07389 7.68462 8.27904 7.47014 8.52753 7.31662C8.77603 7.16309 9.05964 7.0756 9.35144 7.06246C9.64324 7.04931 9.93356 7.11095 10.1949 7.24152L16.6474 10.4678C16.9318 10.6103 17.1709 10.8292 17.338 11.0998C17.5051 11.3705 17.5936 11.6823 17.5936 12.0004C17.5936 12.3185 17.5051 12.6303 17.338 12.9009C17.1709 13.1716 16.9318 13.3904 16.6474 13.5329L10.1949 16.7592C9.93356 16.8898 9.64324 16.9514 9.35144 16.9383C9.05964 16.9252 8.77603 16.8377 8.52753 16.6841C8.27904 16.5306 8.07389 16.3161 7.93156 16.0611C7.78923 15.806 7.71444 15.5188 7.71429 15.2267Z" fill="#9600CF"/>
</g>
<defs>
<clipPath id="clip0_5700_3170">
<rect width="24" height="24" fill="white"/>
</clipPath>
</defs>
</svg>
