<svg width="24" height="24" viewBox="0 0 24 24" fill="none" xmlns="http://www.w3.org/2000/svg">
<g clip-path="url(#clip0_5700_3157)">
<path fill-rule="evenodd" clip-rule="evenodd" d="M16.95 4.00038C17.1322 3.81177 17.233 3.55917 17.2307 3.29697C17.2284 3.03478 17.1232 2.78397 16.9378 2.59856C16.7524 2.41315 16.5016 2.30798 16.2394 2.3057C15.9772 2.30342 15.7246 2.40422 15.536 2.58638L11.646 6.47538C11.5522 6.56911 11.4251 6.62177 11.2925 6.62177C11.1599 6.62177 11.0328 6.56911 10.939 6.47538L8.464 4.00038C8.37175 3.90487 8.26141 3.82868 8.1394 3.77627C8.0174 3.72387 7.88618 3.69628 7.7534 3.69513C7.62062 3.69397 7.48894 3.71927 7.36605 3.76955C7.24315 3.81984 7.1315 3.89409 7.0376 3.98798C6.94371 4.08187 6.86946 4.19353 6.81918 4.31642C6.7689 4.43932 6.7436 4.571 6.74475 4.70378C6.7459 4.83656 6.77349 4.96778 6.8259 5.08978C6.87831 5.21178 6.95449 5.32213 7.05 5.41438L8.636 7.00038H5C4.46957 7.00038 3.96086 7.21109 3.58579 7.58616C3.21071 7.96124 3 8.46994 3 9.00038V19.0004C3 19.5308 3.21071 20.0395 3.58579 20.4146C3.96086 20.7897 4.46957 21.0004 5 21.0004H19C19.5304 21.0004 20.0391 20.7897 20.4142 20.4146C20.7893 20.0395 21 19.5308 21 19.0004V9.00038C21 8.46994 20.7893 7.96124 20.4142 7.58616C20.0391 7.21109 19.5304 7.00038 19 7.00038H13.95L16.95 4.00038ZM9.463 11.9204C9.48106 11.7575 9.53718 11.6011 9.62682 11.4639C9.71646 11.3267 9.83711 11.2126 9.97903 11.1306C10.1209 11.0486 10.2802 11.0012 10.4438 10.9921C10.6074 10.9831 10.7709 11.0126 10.921 11.0784C11.276 11.2324 11.949 11.5454 12.789 12.0304C13.629 12.5154 14.238 12.9424 14.549 13.1724C14.6809 13.2695 14.7881 13.3962 14.862 13.5424C14.9359 13.6886 14.9744 13.8501 14.9744 14.0139C14.9744 14.1777 14.9359 14.3392 14.862 14.4853C14.7881 14.6315 14.6809 14.7583 14.549 14.8554C14.239 15.0844 13.635 15.5074 12.789 15.9954C11.942 16.4854 11.274 16.7954 10.921 16.9494C10.7709 17.0151 10.6074 17.0447 10.4438 17.0356C10.2802 17.0265 10.1209 16.9791 9.97903 16.8972C9.83711 16.8152 9.71646 16.701 9.62682 16.5638C9.53718 16.4266 9.48106 16.2703 9.463 16.1074C9.38836 15.4119 9.35198 14.7128 9.354 14.0134C9.354 13.0474 9.42 12.3054 9.464 11.9214" fill="#9600CF"/>
</g>
<defs>
<clipPath id="clip0_5700_3157">
<rect width="24" height="24" fill="white"/>
</clipPath>
</defs>
</svg>
